<?xml version="1.0" encoding="UTF-8"?><svg id="Layer_2" xmlns="http://www.w3.org/2000/svg" viewBox="0 0 358.77 191.09"><defs><style>.cls-1{fill:#fff;stroke-width:0px;}</style></defs><g id="Layer_1-2"><path class="cls-1" d="m258.64,5.09s.03,0,.05,0c10.72.94,7.03,8.94,4.65,18.91-1.68,6.76-4.53,13.3-7.37,19.71-1.99,5.47-3.58,11.1-5.67,16.57-3.52,8.52-5.45,17.14-6,25.88-.91,2.34.71,4.07.55,6.37.05.43.22,1.07.62,1.07.03,0,.07,0,.1-.01.28-.56-.55-1.19.09-1.78.26,1.49,2.26,2.64,4.15,2.64,1.29,0,2.53-.54,3.12-1.87,3.44-8,7.11-15.87,9.35-24.25.94-4.31,2.32-8.6,3.58-12.78.58-2.8,1.25-5.79,3.55-7.71,2.63-2.67,8.29-5.2,12.06-5.2.8,0,1.52.11,2.1.37,2.62,3.07,5.71,3.93,3.51,9.76-3.52,13.82-8.52,27.27-14.56,40.33-.73,1.91.53,3.35.2,5.18-.02.38.09.55.35.76.83.74,1.71,1.03,2.62,1.03,2.62,0,5.49-2.46,8.21-3.73,1.92-.11,6.33-5.03,7.49-5.03.12,0,.21.06.25.18-.02.26.08.34.24.34.27,0,.73-.27,1.01-.27.16,0,.27.09.25.36-.03.23-.01.32.08.32.05,0,.12-.02.22-.06.18-.11.32-.16.43-.16.41,0,.47.58.96.59.06-.02.12-.03.18-.03.42,0,.62.52,1.04.52.05,0,.11,0,.17-.03.08-.03.14-.04.19-.04.2,0,.27.17.33.38.1.34.14.47.31.47.09,0,.23-.04.44-.1.05-.01.09-.02.12-.02.35,0-.19.73-.25,1.01.04.12.09.17.15.17.29,0,.74-1.19,1.07-1.22.24.38-.85,1.16-.32,1.39.39,0,.32.3.3.64.3-.17.58-.85.83-.85.06,0,.11.04.16.12.14.26.22.53.03.86.37.4-.2.83.02,1.36-.04.36,0,.81-.46,1.08-.14.08-.15.23-.03.38.42-.16,1.34-2.4,1.64-2.4.06,0,.1.09.1.29-.61,2.1-1.99,4.11-2.35,6.2.04.05.08.06.12.06.15,0,.33-.23.48-.23.03,0,.06,0,.09.03.22.32-1.05,1.33-.88,1.87,1.61-.42,2.76-2.73,3.96-3.75,0,.79-.63,1.79-1.34,2.4-8.19,7.02-15.54,8.05-25.76,11.26-2.05.77-5.03,1.13-8.2,1.13-5.23,0-10.95-.99-13.77-2.76-3.37,1.04-7.06,1.92-10.56,1.92-2.55,0-5-.47-7.15-1.68-1.81-.91-2.57-2.74-4.13-4.05-1.29-.56-1.94-2.8-3.31-2.8-.27,0-.58.09-.92.3-6.73,3.3-14.3,7.05-20.7,7.05-4.18,0-7.86-1.6-10.48-5.97-2.09-4.86-2.93-11.23-2.37-19.27.07-4.19,1.24-8.33,2.14-12.5.49-1.43.79-2.93,1.44-4.29.19-.38.35-.78.55-1.15.21-.38-.22-.67.11-.98.52-.52.08-1.27.74-1.7.43-1.13,1-2.46,1.35-3.68,4.22-10.25,14.32-15.59,22.94-15.59,1.48,0,2.92.16,4.28.48,2.32.58,3.55,1.2,4.36,1.2,1.16,0,1.45-1.27,2.85-5.75,3.68-8.44,8.01-16.55,11.14-25.17,2.36-7.6,5.92-14.04,13.16-14.04m-9.04,7.92c.72,0,3.31-3.94,3.52-4.5-.11-.26-.27-.38-.46-.38-1.04,0-3.02,3.44-3.24,4.43-.02.31.05.45.18.45m11.77,8.15c.09,0,.19-.11.25-.42.08-.07.05-.18-.07-.21-.49.11-.37.63-.19.63m-7.43,22.15c1.63-1.46,1.86-3.87,2.96-5.72.47-.6.53-1.18-.44-1.32-.79,1.34-.84,2.93-1.6,4.32-.21.29.14.73-.36.96,0,.62-.53,1.14-.57,1.76m19.66,2.99c.87,0,2.15-1.29,3.23-1.29.23,0,.46.06.67.21.22.18.48.26.76.26.81,0,1.76-.68,2.04-1.59-.37-.08-.76-.12-1.17-.12-1.98,0-4.36.86-6.24,1.95.17.42.42.57.72.57m-4.88,3.6c.67,0,1.26-1.01,1.97-1.01.01,0,.03,0,.04,0-.06-.59.26-1.03.7-1.5-.13-.09-.27-.13-.41-.13-.93,0-1.89,1.84-2.62,2.55.11.06.22.08.33.08m-62.66,13.69q-.51.31-.75.96c.41-.24.59-.55.75-.96m70.44.45c-.19.02-.42,0-.39.19.04.27-.05.34-.27.42-.29.17-.56.89-.22,1.02-.03-.79.61-.99.88-1.63m-56.24.85s.07-.02.1-.02c.18,0,.31.21.41.21.02,0,.03,0,.05-.02.16-.12.29-.19.41-.19s.2.07.29.22c.09-.05.15-.07.19-.07.18,0,.02.39.25.42.26-.01.12-.44.44-.47.11-.06.28-.02.32-.28-.04-.02-.09-.03-.14-.03-.17,0-.37.1-.52.1-.04,0-.08,0-.11-.04,0-.22-.09-.27-.2-.27-.1,0-.22.04-.32.06-.06,0-.14.05-.2.05-.03,0-.05,0-.06-.03-.04-.07-.13-.1-.23-.1-.27,0-.64.21-.64.44m-3.29.71c.52-.39.47-.67,0-.67-.05,0-.11,0-.17.01.22.2.13.43.18.66m61.61.57s.01,0,.02,0c.74,0,.11.76.51.9-.06-.28.12-.47.38-.65-.25-.17-.56-.22-.48-.64-.16.17-.22.32-.43.39m-57.63,1.22c.12,0,.24-.02.36-.06.04-.03.5-.48.27-.48-.02,0-.03,0-.06,0-.06.04-.13.06-.19.06-.24,0-.48-.21-.67-.21-.09,0-.16.05-.22.19,0,.37.22.5.49.5m58.99,2.22c.02-.64.37-1.04.15-1.55-.15.57-.46.99-.15,1.55m-65.25,23.32c1.49,0,3.85-.81,7.17-1.85.87.41-1.19.55-1.49.93,0,0,.02,0,.03,0,.51,0,2.61-.44,2.48-.94.2-2.77-.27-5.73.21-8.72-.47-2.26,2.7-11.03,1.42-11.38-.82-.15-1.56-.22-2.22-.22-6,0-5.55,5.81-8.19,12.46-1.98,7.4-1.94,9.72.59,9.72m9.84,10.39c.59-.07,1.11-.27,1.71-.52-.09-.07-.17-.09-.25-.09-.24,0-.42.27-.63.3-.59.08-.59.11-.84.31m.97.44c-.06,0-.12-.04-.2-.13-.02,0-.04-.01-.06-.01-.2,0-.11.48.08.48.02,0,.05,0,.07-.02.21-.07.44,0,.64-.18,0-.18-.07-.32-.17-.56-.12.23-.22.42-.36.42m-3.5,1.69c.35,0,1.51-.8,1.86-.84-.41-.08-.73-.26-1.03-.26s-.56.18-.87.82c-.1.21-.07.28.04.28m2.45-.44c-.07,0-.14-.01-.21-.04-.01,0-.02,0-.03,0-.2,0-.4.37-.67.37,0,0-.01,0-.02,0-.07.2.14.34-.11.48-.1-.16-.24-.21-.4-.21-.5,0-1.22.6-1.75.62-.22.03-.33.19-.23.43.09.51-.56.99-.93,1.21-.17-.08.03-.32-.15-.42-.38.21-.35.55-.37.89.44-.15,2.16-.3,1.81-.87-.21-.14-.25-.27-.17-.55.05-.15,0-.3.16-.3.03,0,.06,0,.11.02.17-.15.28-.48.42-.48.06,0,.12.06.2.2.06.1.11.17.17.17.05,0,.1-.04.18-.15.37-.27.88-.15,1.29-.43.12-.06.24-.08.35-.08.25,0,.49.1.71.1.2,0,.38-.07.57-.36q.32.32.13.71c.3-.25,2.39-.7,1.6-1.08-.14.06-.26.09-.36.09-.32,0-.51-.26-.67-.55-.1-.13-.22-.18-.34-.18-.37,0-.85.43-1.28.43m-4.46.6s-.08,0-.13-.02c0,0-.01,0-.02,0-.13,0-.21.39-.38.39,0,0,0,0,0,0-.18-.18-.21-.43-.32-.43-.07,0-.16.1-.34.38-.35.38-.19.51.16.51.61,0,1.83-.39,2.11-.56.52-.16.21-.71-.13-.71-.06,0-.12.02-.18.05-.27.07-.47.38-.77.38m68.1.78s-.1-.01-.16-.04c-.02,0-.03-.01-.05-.01-.07,0-.11.07-.15.16-.14.7-.82.47-1.07,1.07-1.22.4-2.86.82-3.66,2.07-.03.11-.05.24-.2.27-.18-.05.08-.32-.14-.37-.09.55-.92.29-.9.86.16.56-.38.24-.46.61,0,.09.04.11.1.11.08,0,.19-.06.26-.09.88-.26,1.72-1.19,2.58-1.19.02,0,.03,0,.05,0,.02,0,.05,0,.08,0,.65,0,2.29-.66,1.98-1.44,1.43-.06,2.45-1.42,3.59-2.57-.02,0-.04,0-.06,0-.27,0-.41.14-.56.23-.07.05-.13.07-.16.07-.17,0,0-.45-.15-.45-.03,0-.08.02-.15.08-.3.16-.45.64-.75.64m-66.28,1.2c.73-.01,1.32-.31,2.02-.62-.11,0-.21,0-.31,0-.61,0-1.16.08-1.7.62m-2.86.04c-.21.12-.43.16-.66.16-.41,0-.82-.13-1.22-.13-.31,0-.62.08-.89.36.17.55-.92.31-.48.8.07.04.15.09.22.09.07,0,.13-.04.18-.16.35-.45.91-.24,1.33-.35,0,0,0,0,0,0,.03,0,.05.06.08.06.02,0,.03-.02.05-.07.25-.82.99-.12,1.37-.76m45.32,6.7c.15-.14.26-.19.34-.19.17,0,.23.21.37.31.1-.33-.06-.54-.26-.54-.16,0-.34.13-.45.42M258.64,0c-12.44,0-16.59,13.03-17.98,17.5-1.92,5.27-4.29,10.31-6.8,15.64-1.39,2.96-2.84,6.03-4.19,9.12l-.11.25-.08.26-.33,1.05c-.03.09-.06.18-.08.27-.23-.06-.46-.12-.71-.19h-.04s-.04-.02-.04-.02c-1.73-.4-3.56-.61-5.43-.61-5.39,0-11.01,1.68-15.84,4.74-5.34,3.38-9.42,8.23-11.8,14l-.11.28-.08.29c-.18.64-.5,1.46-.81,2.25-.02.04-.03.08-.05.12-.44.64-.76,1.37-.94,2.2-.28.55-.52,1.22-.58,2.02,0,0,0,0,0,0l-.03.06-.03.06c-.6,1.26-.95,2.47-1.26,3.54-.14.46-.26.9-.4,1.29l-.1.28-.06.29c-.18.83-.37,1.66-.56,2.49-.79,3.46-1.61,7.04-1.69,10.86-.59,8.75.32,15.79,2.78,21.5l.13.31.17.29c3.31,5.53,8.44,8.45,14.84,8.45,6.81,0,14.09-3.26,20.7-6.47.34.33.74.66,1.19.96.22.23.46.53.72.84.87,1.08,2.07,2.54,4.05,3.57,2.73,1.51,5.94,2.28,9.55,2.28,2.99,0,6.22-.5,10.07-1.56,4.17,1.75,9.86,2.4,14.26,2.4,2.75,0,6.67-.24,9.85-1.4,1.85-.58,3.62-1.09,5.33-1.59,7.85-2.27,14.63-4.23,22.1-10.63,1.49-1.28,3.09-3.58,3.11-6.21l.1-11.16-3.3,2.82c-.12-.1-.24-.2-.37-.29-.21-.31-.44-.59-.7-.84-.06-.12-.12-.22-.18-.31l-1.62-2.59-2.33.17c-.49-.26-1.01-.44-1.51-.54-.2-.1-.42-.19-.66-.27-.39-.25-.77-.42-1.14-.55-.78-.47-1.68-.73-2.63-.75-.52-.17-1.06-.25-1.63-.25-2.37,0-4,1.37-6.26,3.27-.61.51-1.65,1.39-2.27,1.81h-.23s-.89.43-.89.43c-1.11.52-2.12,1.13-3.1,1.71-.27.16-.6.36-.93.55,6.14-13.45,10.93-26.8,14.25-39.72,2.73-7.56-.97-11.11-3.2-13.25-.48-.46-.92-.89-1.31-1.34l-.76-.9-1.08-.47c-1.2-.52-2.59-.79-4.12-.79-4.93,0-11.82,2.92-15.51,6.55-3.48,3.02-4.43,7.27-5.03,10.19-.17.55-.34,1.1-.5,1.65-1.11,3.61-2.25,7.35-3.09,11.18-1.79,6.64-4.51,12.94-7.41,19.59l-.4-2.28c.68-7.61,2.52-15.07,5.47-22.21l.03-.06.02-.06c1.19-3.11,2.21-6.25,3.21-9.3.81-2.49,1.58-4.84,2.43-7.19,2.71-6.12,5.77-13.04,7.59-20.39v-.02s.01-.02.01-.02c.29-1.22.61-2.43.91-3.6,1.62-6.21,3.16-12.07-.11-16.71-2-2.84-5.26-4.43-9.96-4.84l-.21-.02h-.21s-.07,0-.07,0h0Z"/><path class="cls-1" d="m289.3,9.75c.07,0,.14,0,.22.03,1.03.01,1.87.09,2.48,1.11.32.76,1.49.2,1.69.99.52.83,2.03.38,2.38,1.59.32.35.02.84.16,1.23.12.19.09.42.07.63-.05.05-.09.06-.13.06-.1,0-.18-.1-.27-.1-.04,0-.08.02-.13.08-.13.16-.22.37-.17.56.12.94-.32,1.96-.1,2.87.06.16-.02.33-.22.44-.48.32-.29,1.14-.2,1.58.45,1.1-.21,2.59.79,3.3.91,1.27.44,5.29-.15,7.12-.22,1.06-1.06,1.83-1.7,2.8-1.27,1.27-3.17,1.9-4.67,2.54-2.13,1.02-4.57,1.61-6.9,1.61-4.83,0-9.16-2.51-9.06-8.81-1.03-6.66,7.35-13.04,11.96-15.71.74-.67,1.35-1.41,2.1-2.03.67-.57,1.04-1.88,1.86-1.88m-.07,5.67c-.78.19-.66.96-.98,1.58-.04.36.39,1.14.74,1.14.1,0,.19-.06.26-.22-.14-.54-.1-1.12-.13-1.67-.17-.24-.16-.49.11-.82m-3.11,1.76c-.01-.52.48-.69.75-1.13-.06.03-.12.04-.16.04-.17,0-.23-.16-.33-.31-.11.61-.74.86-.25,1.4m-10.53,7.25c3.41-2.49,3.48-4.65,5.06-4.65.7,0,1.7.42,3.42,1.43.08-.02.15-.03.2-.03.44,0-.32.67-.83.67-.07,0-.13-.01-.19-.04.22.3.79.03.65.66.02.04.05.06.09.06.06,0,.14-.05.16-.13.4-.69.9-.81,1.42-.81.28,0,.57.03.85.03.4,0,.79-.07,1.13-.41-.02,0-.03,0-.05,0-.37,0-.25-.56-.59-.58.19-.46-.43-.47-.38-.79.17-.13.14-.33.24-.48.04-.05.07-.07.11-.07.05,0,.11.03.17.03.05,0,.1-.01.15-.07-.25-.27-.64-.15-.91-.33-.29-.2-.54-.82-.89-.82-.07,0-.14.02-.22.08-.05.01-.09.02-.12.02-.4,0,.49-.92.65-1.11-.14-.32-.25-.49-.46-.49-.11,0-.25.05-.44.14-2.5,1.24,1.39,2.89.19,2.89-.08,0-.17,0-.29-.02.2.26-.3.86-.53,1,0,0-.01,0-.02,0-.15,0-.17-.15-.19-.26-.11-.64-.92-.5-1.22-.96-.78-.51-.01-1.25-.13-1.97-.35-.57-.41-.61.1-1.18-2.79,1.32-5.33,3.89-7.27,6.87-.05.08-.18.2-.06.24.52.21-.13.77.19,1.06m15.75-7.43c.26-.13.12-.4.3-.52.05-.03.18-.02.09-.13-.05-.04-.1-.05-.15-.05-.29,0-.56.5-.24.7m.48,1.2c.23,0,.55-.35.7-1.07-.02,0-.04,0-.06,0-.16,0-.35.18-.51.18-.1,0-.18-.06-.25-.26-.27.77-.12,1.16.12,1.16m-6.82,5c.13,0,.28-.02.43-.02.19,0,.37.03.51.15.07.08.13.11.19.11.11,0,.21-.1.34-.19,0,0-.02,0-.02,0-.34,0-.4-.42-.67-.42-.07,0-.15.03-.26.09-.03.03-.08.05-.12.05-.04,0-.06-.01-.07-.05-.07-.42-.51-.29-.75-.59-.14.76.1.86.43.86m2.94,4.53c.18,0,.39-.09.6-.33-.04-.14-.32-.17-.19-.26.31-.41.65-1.13.48-1.56-.07.03-.13.04-.17.04-.2,0-.1-.29-.13-.47-.71.1-.14.76-.65.98-.92.44-.58,1.59.06,1.59m2.51,1.69c.27-.2.54-.35.51-.78-.23.09-.44.17-.69.27.18.13.11.35.17.51m-1.61.08c-.08,0-.05-.31-.19-.31,0,0-.02,0-.02,0-1.54.43-.7,1.23.17,1.23.37,0,.75-.15.95-.53,0-.08-.04-.1-.09-.1-.08,0-.21.08-.29.08-.06,0-.1-.05-.06-.21.08-.21,0-.55-.12-.55-.05,0-.11.06-.17.2-.09.15-.14.2-.18.2m2.57.65c0,.4-.3,1.17-.99,1.17.69,0,.99-.77.99-1.17,0-.14-.04-.24-.11-.24.07,0,.11.1.11.24m-12.76,4.38c.26,0,.63-.43.9-.43.04,0,.07,0,.11.03.05,0,.11.03.17.03.06,0,.11-.03.14-.16,0-.23-.17-.32-.4-.32-.43,0-1.06.32-1.15.64.06.16.14.22.23.22m1,2.1c.71,0,2.71-.8,2.78-1.12-.43-.37-.89-.59-1.33-.59-.61,0-1.2.42-1.67,1.49-.08.15.02.22.22.22m9.66-31.98h0c-3.24,0-4.89,2.49-5.43,3.31,0,.01-.02.02-.02.04-.46.41-.85.81-1.2,1.17-.14.14-.26.27-.38.39-4.24,2.54-15.18,10.12-13.97,20.14.04,4.85,2.01,7.87,3.68,9.57,2.54,2.58,6.26,4,10.47,4,3,0,6.19-.73,8.99-2.06.19-.08.38-.16.58-.24,1.6-.65,3.8-1.55,5.6-3.34l.36-.36.28-.42c.09-.13.23-.32.39-.52.64-.83,1.6-2.08,2.02-3.89.4-1.49,1.74-7.16-.32-10.76,0-.27-.03-.57-.07-.9.29-.79.4-1.64.3-2.5l.67-.63.14-1.98c.02-.3.07-.92-.07-1.68,0-1.05-.22-2-.69-2.85-.69-1.51-1.9-2.61-3.63-3.28-.47-.44-1.07-.83-1.83-1.13-1.81-1.77-4.03-2-5.18-2.04-.22-.03-.45-.04-.67-.04h0Z"/><path class="cls-1" d="m271.14,56.23c.01.44-.52.43-.47-.02-.02-.47.48-.41.47.02Z"/><path class="cls-1" d="m284.08,42.14c-.29.25-.47.64-.74.7-.21-.49.28-.87.74-.7Z"/><path class="cls-1" d="m1.06,63.9c-.33-.39-.71.49-.98-.05-.25-.49.19-.63.51-.83.7-.4-.49-1.52.74-1.44-2.5-2.89,2.13-1.94,1.63-3.79-.21-.91.6-1.65.19-2.71-.26-.65,1.21-1.27,1.78-1.21,1.08.4,3.7-4.4,4.8-5.41,2.72-2.6,4.35-4.96,8.29-5.88,11.86-4.11,14.77,3.62,14.1-4.99-.18-1.48,1.4-1.8,2.3-.92.4.5.26.92-.1,1.52-.51,1.1-1.33,3.29-.44,4.28,1.14.4,2.39.29,3.55.8.39.17.91-1.34.86-2.02-.05-.61.16-.7.5-.9,2.7-.56-2.86,3.99,2.63,4.22,9.17,3.06,9.82-.74,14.67-7.2.98-1.05,2.04-.42,3.03-.07,2.19.96-2.01,5.21-2.64,6.55-2.21,2.23-2.12,5.77-3.34,8.75-3.66,13.14-5.47,26.7-4.96,40.3-.3,1.12,1.43.78.63,1.75-.16,2.38,1.22,5.27,1.76,7.65,1.71,6.21,6.88,10.8,9.01,16.78.96,3.12,1.72,6.23,1.36,9.52.81,3.94,1.04,14.92-1.82,17.56,1.13-.75,2.44.63,1.6,1.27-1.66.85-2.11,2.54-2.65,4.06-1.39,3.93-2.99,8.18-5.18,11.48-.46.36-.43.68-.36,1.09.03.17.19.48,0,.47-1.45,0-1.3,1.53-2.01,2.23-.73.72-.83,2.18-.96,3.34-.08.69-.9,1.6.28,2.23.13.07.06.93-.32,1.06-1,.33-1.51.82-1.29,1.97.08.4-.45.96-.66,1.09-1.76,1.13-1.93,3.67-4.01,4.46-.58.22.2.7-.19.96-1.46,1.47-3.79,2.02-5.69,2.96-8.48,6.75-19.47,6.9-24.27-4.16-4.34-8.52-7.34-18.45-6.55-28.12.66-4.81,3.06-9.1,3.89-13.9.21-.89,1.48-2.09,1.9-3.07.64-5.55,5.08-11.95,8.74-16.2,8.21-7.82,8.35-4.5,7.86-16.5.52-16.77.23-33.5.11-50.28,0-.83-.63-1.6-.09-2.51.28-.47-.36-.5-.62-.44-3.04.05-5.94-.93-8.97-.18-4.27.45-6.36,1.59-9.36,4.56-.61.39-1.45.76-.46,1.64.08.07,0,.51-.02.51-1.81.02-.21,1.97-1.35,2.47-.15.07-.54.8-.84,1.3.52.17,1.23.33,1.21.9-.02.71-.79.04-1.19.39.31.89,1.17.02,1.66.58-.94.54-1.46,1.3-1.26,2.41.06.34-.09.52-.5.42-1.81.1-1.55,2.79-1.46,4.14.46,2.32-1.1,1.4-1.42,2.64-.28,10.32-1.61,20.77,1.3,30.87.84,1.44-1.1,1.76-1.26.21-2.57-9.97-2-20.3-1.43-30.43-.14-2.34-.9.36-1.5-.81-1.02-1.92-.47-4.12-1.44-5.95-.29-.32.41-.94.67-1.4Zm28.06,52.5c-2.45,2.05-4.62,3.69-5.92,6.57-1.01,2.27-3.11,3.98-3.29,6.7-1.55,4.46-3.63,8.72-5.09,13.25-1.27,3.1-1.71,6.12-1.4,9.38.24,1.31-.64,2.63-.1,3.9,1.49,4.89,2.69,9.89,4.42,14.75,2,6.31,7.12,12.83,14.47,11.32,2.32-.02,6.39-3.34,6.23-5.54-.25-.78-.06-1.01.79-1.15.82-.14,1.52-.71,1.57-1.74.07-1.49,1.73-2.46,1.29-4.25-.1-.42.46-2.48,2.21-1.44.07.04.34-.09.35-.18.21-1.01,1.44-1.51,1.41-2.55-.04-1.19,1.72-1.33,1.36-2.61,1.36.14,1.38-1.22,2.08-1.83,1.69-1.46,1.86-3.76,2.92-5.57.21-1.08,1.53-1.79,1.56-2.91-.41-2.46.7-4.72.9-7.09,1.9-5.89,1.42-12.34.11-18.36-1.38-4.18-3.95-7.73-6.2-11.39-3.47-4.66-4.69-9.85-5.45-15.43-1.04-2.31-.89-4.66-.91-7,.05-14.12,2.31-27.98,6.26-41.52-1.36.65-2.48,1.78-3.46,1.48-1.59-.49-3.08.4-4.78-.36-1.9-.85-4.11-1.1-6.05-2.12-.58-.3-1.5-.6-1.66.86-1.14,14.76-2.09,29.61-2.03,44.33-.5,5.09-.17,10.18-.4,15.26-.01.33-.04.67.48.7,1.11.05,2.12-.9,2.13-2.07.03-4.32-.08-8.63.15-12.95.28-5.17,0-10.35.42-15.53.57-1.58-.82-7.07.93-7.28.93-.1,1.77.3,1.67,1.23-1.27,8.38-2.27,16.62-2.05,25.15-.2,22.43.8,45.27,3.95,67.28-.17.39.14,1.03-.67.96-.63-.05-.84-.43-.78-.98-.31-3.59-.94-7.3-1.04-10.91-1.1-14.34-2.13-28.92-2.91-43.19-.95,1.42-2.95,2.2-2.35,4.38.08,7.35-.38,14.76-.28,22.15.26,3.12-1.78,32.4,2.36,29.89.56-1.49,1.48.95,1.19,1.35-7.16,4.14-4.17-12.94-5.16-16.45,0-2.6-.06-5.11-.72-7.7-.06-1.93,1.3-.02,1.07-1.37-.52-9.94.21-19.43.4-29.43Z"/><path class="cls-1" d="m69.38,44.84h51.68v8.08h-42.47v23.13h38.58v7.78h-38.58v25.69h43.7v8.49h-52.91V44.84Z"/><path class="cls-1" d="m130.19,117.89h26.37c21.8,0,32.15,14.81,32.15,36.51s-11.05,36-32.86,36h-25.66v-72.51Zm25.35,64.5c17.04,0,23.83-10.95,23.83-27.99s-6.08-28.6-23.12-28.6h-16.94v56.59h16.23Z"/><path class="cls-1" d="m269.03,191.09v-6.37h-5.12v-6.37h-5.12v-12.78h5.12v-6.37h10.24v-6.37h20.55v-6.41h-5.16v-6.37h-15.4v6.37h-15.36v-6.37h5.12v-6.37h5.12v-6.37h25.67v6.37h5.12v6.37h5.12v51.02h-10.24v-6.37h-5.16v6.37h-20.52Zm20.52-12.73v-6.37h5.16v-12.78h-5.16v6.37h-17.96v12.78h17.96Z"/><path class="cls-1" d="m315.18,191.09v-89.31h10.24v31.92h5.12v-6.37h17.96v6.37h5.16v6.37h5.12v51.02h-10.28v-44.66h-5.12v-6.37h-12.84v6.37h-5.12v44.66h-10.24Z"/><polygon class="cls-1" points="344.12 95.04 334.51 89.09 327.83 98.21 326.48 86.99 315.18 87.45 323.11 79.4 315.71 70.86 326.95 72.04 329.02 60.92 335.1 70.45 345.08 65.13 341.42 75.83 351.8 80.31 341.16 84.13 344.12 95.04"/><polygon class="cls-1" points="241.6 165.44 230.33 164.57 228.58 175.74 222.23 166.39 212.4 171.99 215.75 161.19 205.26 157 215.78 152.89 212.51 142.07 222.29 147.74 228.71 138.43 230.38 149.61 241.66 148.83 233.95 157.11 241.6 165.44"/><polygon class="cls-1" points="153.37 95.71 144.2 89.1 136.89 97.72 136.34 86.43 125.04 86.09 133.53 78.62 126.75 69.58 137.88 71.55 140.72 60.61 146.12 70.55 156.44 65.95 152.04 76.36 162.07 81.57 151.19 84.62 153.37 95.71"/><polygon class="cls-1" points="85.98 175.69 85.73 164.39 74.45 163.74 83.13 156.5 76.59 147.28 87.67 149.55 90.8 138.69 95.93 148.77 106.38 144.45 101.7 154.74 111.59 160.22 100.62 162.97 102.51 174.12 93.52 167.26 85.98 175.69"/><path class="cls-1" d="m179.53,62.17c1.16-3.47,2.59-7.58,2.59-9.12,0-1.93-.78-2.44-1.94-2.44-4.4,0-10.99,8.35-15.39,16.06h-2.72c5.3-10.15,14.1-20.81,22.25-20.81,3.36,0,5.04,2.7,5.04,5.78,0,2.7-1.03,6.29-2.72,10.66l-13.71,38.79c-.65,1.93-1.68,4.75-1.68,6.42,0,1.93.52,3.21,2.59,3.21,5.3,0,11.12-8.86,15.52-18.63h2.72c-4.53,11.05-12.55,23.51-21.34,23.51-5.04,0-6.85-2.83-6.85-6.68,0-2.31,1.04-5.14,2.07-7.96l13.58-38.79Z"/><path class="cls-1" d="m185.74,24.02c0-3.85,2.59-6.17,6.47-6.17s6.21,2.31,6.21,6.17-2.46,6.17-6.21,6.17-6.47-2.44-6.47-6.17Z"/></g></svg>