<?xml version="1.0" encoding="UTF-8"?><svg id="Layer_2" xmlns="http://www.w3.org/2000/svg" viewBox="0 0 714.66 481.4"><defs><style>.cls-1{fill:#fff;stroke-width:0px;}</style></defs><g id="Layer_1-2"><path class="cls-1" d="m690.7,239.97c-1.24,4.93-4.45,8.27-4.1,13.64.54,8.31-.68,16.75-.36,25.13.51,8.22-.1,16.42-.58,24.62-.04.73-.14,1.38-1.15,1.7,1.22-17.69-2.02-35.03-.89-52.7-1.98,1.26-1.2,4.18-3.74,4.68,2.8,4.13.59,2.2-1.58,2.57.74,1.2,1.71,2.25-.82,2.93-4.9,2.77-.76,27.84-3.1,33.46-2.01-7.88-.95-15.95-2.12-24.03-2.63,1.47-1.27,3.62-2.59,5.59-2.43,2.07-2.01,5.27-3.13,7.83-1.5,3.44-.41,7.22-1.89,10.59-.2.46.05,1.16.18,1.73.33,1.48,1.21,2.99-.51,4.23,1.16,8.35-5.06,21.02.02,27.15.29.3.46.6.24,1.06-.67,1.42-.35,2.66.61,3.96.72.97.39,3.21.31,3.27-3.15,2.4-3.55,7.24-7.69,8.7-5.1,8.33-10.56,18.06-10.8,28.18.12,2.1-1.72.77-1.98,1.85-.11.46-1,.96-1.34.07-.35-.9-1.83-1.52-1.15-2.59,4.14-7.46,4.71-16.24,9.96-23.19-4.95-2.99-2.45-7.85-3.07-11.85-1.34-8.57,1.35-16.99,1.83-25.53.43-7.68.6-15.43,1.81-23.1.43-2.74-.28-5.66.39-8.45.15-.64,0-.98-.44-1.22-.65-.35-.72.28-1.04.64-1.06,1.21-2.3,2.26-3.34,3.49-.58.69-2.56,1.3-.5,2.59.09.06,0,.69-.09.72-3.03.91-3.24,4.29-5.33,6.03-2.35,1.95-4.34,4.48-6.93,5.96-20.39,12.03-24.96,1.09-27.54-18.57-1.12-10.01-2.62-19.97-2.94-30.06,0-1.86-1.26-1.89-2.09-1.04-2.67,2.72-6.43,3.6-9.31,5.91-4.59,2.89-7.04,1.44-5.4,7.41-.29,3.43,2.15,12.19-.84,14.05-1.18-.22-.24-.92-.19-1.31.57-5.27-.76-10.35-1.39-15.78-4.03,3.99-18.73,6.78-22.79,1.84-1.8-1.8-3.2-1.65-4.77.09-6.03,5.24-5.92-2.88-1.52-5.84-4.21-1.02-5.75.49-6.04,5.93-.25,4.7-1.31,9.27-1.91,14.65-1.31-2.3-1.18-4.25-.69-5.71,1.29-3.85-.09-7.84,1.06-11.66.3-1-.75-1.59-1.79-1.3-8.6-.72,2.54-9.76,5.93-11.04,3.88-1.66,3.15-5.52,2.83-8.69-.93-2.53-.21-12.15-1.8-12.64-2.19.97-.48,11.82-1.73,15.03-1.13-2.52.31-17.41-4.08-14.21-1.95.69-3.53-1.15-5.89-.54-1.63.42-4.53-.51-6.85-.93-5.47-5.92-3.24-21.51-3.58-29.6-.21-20.26,8.33-39.47,8.2-59.65.25-13.49-2.37-26.79-3.47-40.2.69-6.06-2.37-7.48-8-5.31-3.24,1.62-10.64,1.01-11.51,4.95-2.69,12.43-2.05,25.98-9,37.03-3.95,7.99-8.01,15.87-12.13,23.77-.43.72-.63,1.5-1.58,1.48-1.53-.03-1.68.5-1.03,1.79.51,2.62-5.5,2.32-4.96,6.79,0,.14-.46.27-.69.43-1.86.93-3.1,2.07-3.01,4.4-3.77.53-2.18,5.71-5.64,6.49.69,3.74-1.51,3.1-3.57,4.51-10.08,10.49-4.68,4.82-13.4,1.13-2.42.03-12.43-6.91-11.86-2.58.66,6.54-1.61,14.25.76,20.21.89,1.98-.42,4.26-2.25,4.05-.6-.07-.77-.06-.79-.95-.17-5.73-.53-11.46-.75-17.19-.28-2.39,1.98-8.19-1.73-8.51-2.41.6-7.04-3.11-7.51.97-.01.15-.28.43-.4.42-4.21-.69-2.54,3.03-3.47,4.73-.63,1.15-.74,3.25-2.45,2.35-3.95-2.7.07-4.2-1.05-5.93-.64-.47-1.96-.98-2.37-.67-2.25,1.74-5.28,1.8-7.46,3.73-.54.48-1.37.33-.86,1.4.14.3,0,1.01-.45.82-3.15-1.3-2.82,1.85-3.86,3.08-1.11,1.3-3.17,2.15-2.72,4.39.11.53-.24.98-.39.95-3.83-.89-3.69,4.13-6.68,4.48-2.48,1.28,2.15,2.68-3.84,4.89-1.09,2.24-1.62,4.79-3.4,6.79-1.97,3.19-2.26,7.18-4.32,10.43-.38.61.1,1.95.49,2.82,1.6,3.36-3.63,4.85-5.09,2.13-1.22-1.18-.46-1.69.45-2.76,1-1.17,1.31-3.03,1.59-4.65.22-1.3-.01-2.64,1.68-3.11.24-.07.59-.45.56-.65-.27-4.82,4.15-7.96,4.92-12.41.83-7.34,6.88-5.69,5.03-14.86,2.48-.16,2.94-3.04,5.02-3.73.53-.17,1.23.15,1.46-.69.8-2.87,4.27-3.24,5.44-5.38,1.86-3.41,5.12-5.34,7.73-7.75,1.83-1.68,3.21-4.61,6.6-4.86,5.65-1.27.56-5.35,3.15-8.91,1.53-1.89.8-5.65.95-8.59.03-.49-.48-1.39-.86-1.46-3.33-.33,2.5-4.64-2.03-6.29-1.69-1.01,1.12-3.44-1.28-7.21-2.83-6.11.35-15.03-5.7-19.27,2.73-1.73,2.08-4.05,1.41-6.16-.19-.58-.03-.89.09-1.22,1.27-2.52.64-5.1.71-7.73,3.04-8.94,3.89-18.42,6.65-27.44.55-1.8,1-4.26-.34-6.28,2.38-3.49-2.16-6.52.2-9.83-1.6-2.04,1.23-2.91,1.27-4.7.94-5.52,4.02-10.73,5.88-15.97.31-.9-.31-2.09-1.71-2.23-5.25-.54-9.46-3.79-14.26-5.46-4.34-1.51-8.69-3.39-13.36-.93-2.84,1.5-6.37,1.27-8.88,3.73-15.89,11.65-11.53,26.31-12.7,43.59-.03,8.3-1.59,16.7-.37,24.95.37,1.12.49,2.61-.81,3.6-2.61-17.5-1.38-35.33.2-52.83.38-1.43-1.99-1.2-2.12-.07-.71,2.53-3.42,4.49-2.16,7.59.07.17-.23.54-.42.76-3.26,3.7-2.16,8.33-2.68,12.61-1.92,16.37.9,32.32,1.82,48.57.55,7.99-.63,15.92-.74,23.87.5,7.42,1.88,14.93,1.43,22.41-.57,5.06,3.89,4.41,7.34,3.5,2.94-11.25,16.65-16.73,22.8-26.36.77-1.14,1.51-1.04,2.47-1,1.44.19,1.18,3.5-.62,2.49-.16-.05-.63.31-.66.52-.68,3.92-6.6,4.67-6.3,8.8.48,1.04-.34,1.3-.99,1.29-2.79-.01-2.87,3.43-5.19,3.97.65,2.47-1.36,4.06-2.06,6.07-.83,2.36-1.73,4.81-3.16,6.82-1.87,2.65-2.64,5.92-4.98,8.25-.68.68-.53,1.52-.46,2.27.46,5.34.67,10.68.41,16.03-.07,1.35,1.2,2.72-.27,4.53-4.48-34.58,2.26-11.44-18.21-19.15-3-1.7-2.1-3.76-1.8-5.93.5-15.22-1.12-30.22-.65-45.48-.16-17.31-2.11-34.54-1.33-51.8,1.67-8.18-2.74-16.21.31-24.16,1.36-11.59-1.31-23.29,2.56-35.21-1.51,1.25-2.11,1.66-3.46.25-7.83-5.17-15.09,5.32-19.81,10.65-1.22,2.36-2.62,4.66-4.46,6.7-.79.88.44,2.49-.29,3.99-.79,2.05-3.97,1.79-3.23-.36-.51-10.02,8.95-13.57,7.09-17.96-.53-1.22,2.51-1.82,2.37-3.76-.01-.15.6-.3.66-.52,2.53-9.48,24.47-17.47,32.55-13.29,1.04.63,1.09-.15,1.5-.68,1.55-1.86,3.41-5.56,6.25-4.74,2.54,1.29-.14,3.76,1.66,4.44,2.53.54,2.2,2.25,1.47,3.78-2.97,8.44-2.55,17.51-3.83,26.3.9-.04,1.53-.65,1.7-1.2,4.37-9.91,11.94-20.77,23.55-21.86,10.34-6.21,21.95,3.47,31.3,5.55,1.71-.84,3.18-.72,4.3,1.04,1.24,1.64,3.71.42,2.31-1.41-.94-2.75,1.92-4.42,4.1-2.67,2.25,1.43-3.54,5.78,2.16,6.18,7.32.53,14.5,1.76,21.96.36,4.62-.86,9.65-1.62,14.28,1.28,9.99,6,15.13,18.61,17.29,29.61.09,1.89.18,3.66,1.17,5.39,2.18,3.85.65,8.28,1.63,12.36.38,1.61.99,3.25.82,5.06,3.42-3.62.88-2.95,2.29-5.56,2.22-1.87,3.27-3.83.89-6.36-.46-.49.04-.79.56-1.04,3.37-1.68,5.91-4.37,8.57-6.93.82-.79,2.56-1.26,3.06-1.15,4.59,1.04,9.21-2.36,13.78.19,4.52.61.9-4.72,8.28-4.66,7.85-1.89,12.56-8.96,20.28-10.91-.32,3.57-19.61,17.46-23.96,17.01,3.08,3.96,1.46,8.44,1.46,12.55,0,2.18-.48,4.14.7,6.16.63,1.08-.24,2.26-.61,3.09-2.11,6.31,1.3,12.28.44,18.74.75,8.89,1.12,17.82,2.72,26.62.18,1.01-1.5,2.02.31,3.02,1.53-9.79-.16-19.98,2.31-29.49,5.46-3.01-.63-22.86,7.92-17.65.92,3.18-2.8,6.3-1.77,9.95-2.47,13.34-4.72,26.85-5.19,40.54-2.68,17.32-.99,35.56-5.86,52.54-.54-10.09-.12-20.13,1.16-30.74-2.31,2.42-2.04,5.16-2.17,7.34-3.75,17.8-5.7,35.94-3.82,54.1.69,1.9,5.16,1.2,6.84,1.19,1.18-.23,1.33.42,1.89.78,1.59,1.02,1.86.73,2.82-1.03.68-1.25,2.26-1.76,3.3-2.94,4.11-3.63,11.52-14.37,16.27-15.16,1.02.16,1.01-.61,1.11-1.35,3.64-24.07,2.9-48.43,2.88-72.61.19-3.78,1.04-7.56.08-11.4-.91-4.16.43-5.53,5.02-5.43-3.1,3.56-.32,16.62-1.67,22.53,3.86-3.29.43-6.17,6.27-8.45,6.89-7.18,13.16-14.84,20.98-21.27.56-.71,1.66-1.63,2.46-.91.84.76-.18,1.58-.83,2.2-5.91,6.4-15.36,12.32-17.71,20.68,3.6,14.07,6.18,28.44,10.43,42.39,1.12,12.06,2.6,24.55,5.19,36.27,1.03,1.45-.39,3.2-.13,5.01.37,2.64,1.75,5.1,1.35,7.9.36,2.96,18.55-2.67,21.66-2.92,3.09-1.43,10.27.2,9.45-4.91-.8-7.42-.29-15.31.42-22.71,1.25-4.48-4.44-3.25-2.21-6.26,2.2-3.46,4.12-7.5,7.89-9.56-.87-3.62,3.25-3.6,4.2-5.77,2.15-3.67,16.23-19.61,20.12-16.51.75,1.03-.4,1.35-.81,1.93-6.05,4.41-11.56,9.24-15.95,15.36,2.57,1.38.2,4.28,1.85,5.96.87.88.93,1.92.24,2.91-2.17,3.09-1.58,6.63-1.87,10.07-.34,10.97-.32,22.11.95,33,.74,19.07,3.2,37.74,4.72,56.76-.22-2.94,3.78-3.37,3.34-6.75-.2-1.48,2.3-1.67,2.85-3.46.92-2.92.62-5.9.44-8.69.13-17.69,1.48-35.32,2.32-52.98.23-5.57,1.24-11.17.54-16.78-.49-2.53,2.79-3.87,3.95-1.54-1.41,17.53-3.08,35.46-3.95,53.2-.35,5.36-.14,10.75-.29,16.12.13,1.36-1.88,9.24,1.06,6.26,1.1-3.46,3.53-6.19,5.08-9.41,1.46-6.3-.12-13.05-1.18-19.33-.45-1.57-.2-2.57,1.11-2.58,6.28-.6,2.81,12.08,3.88,16.13,4.87-1.93,1.84-7.56,5.61-10.24,1.35-1.06,2.65-2.45,3.39-3.98.67-2.54,13.64-12.62,11.52-5.35-1.28,1.63-.85,3.76-2.04,5.49-2.32,5.58,3.55,12.44,3,18.66,2.21,20.43,6.6,40.55,6.6,61.12.57,2.11-2.02,4.43.55,6.31-2.46,2.33-1.35,5.43-1.92,8.17-.63,3.05-.63,6.14-1.27,9.2-1.25,9.63-6.2,17.82-8.53,27.04,0,1.3-2.37,1.97-2.55,3.5-.33,2.72-2.38,4.94-1.97,7.88.2,1.41-1.7,1.49-2.39,2.67-4.95,11.17-12.33,21.31-16.58,32.64-.05.98-1.42.87-2.09,1.67-1.78,2.11-1.59,5.19-3.8,6.97.13,10.55-11.27,14.83-13.64,24.36-3.61,9.12-19.39,36.22-16.09,43.96.75,3.09-3.85,1.3-3.51-.84-.34-4.88,1.33-9.23,3.56-13.3,4.93-9.6,8.53-19.76,12.8-29.65,4.34-12.3,8.46-22.97,13.92-34.72,7.31-6.82,9.23-17.08,14.76-25.05,4.14-10.05,8.44-20.32,11.77-30.83,4.05-15.2,3.86-32.67,3.28-48.37-1.73-12.12-3.75-24.2-5.21-36.37-1.33-6.24-.84-13.12-4.51-18.56Zm-186.4-141.39c-16.36,6.24-32.13,13.21-48.88,18.37-7.98.44-4.7,10.81-5.77,16.33-.28,9.27.82,18.49.25,27.77,0,.62-.31,1.57.82,1.59,8.04,1.27,16.86,2.91,23.9,7,2.56,1.9,3.39.66,4.1-1.09,1.45-3.58,5.14-5.95,5.36-10.14,4.71-2.84,4.55-8.7,7.92-12.64,8.75-13.71,11.42-30.96,12.3-47.19Zm144.24,122.44c.44-3.98-1.63-7.04-.99-10.37.5-2.59-1.06-3.04-2.92-2.51-8.33,2.38-16.82,3.97-25.29,5.66-4.09-.03-1.12,10.94-1.52,13.96,2.44,18.53,3.34,37.17,7.61,55.44.5,3.08,3.65,4.06,4.54,6.7.03.08.36.1.55.09,10.81.41,12.89-6.05,20.18-11.58,2.43-1.11,2.07-3.09,2.11-4.91-.98-17.24-3.73-35.54-4.26-52.48Zm-196.48-134.55c-1.41,6.37,9.72-2.3,12.72-1.83,8.99-1.26,33.57-16.01,35.29-24.62-1.9-5.81-2.83-13.88-8.44-17.47,1.44-3.02-1.59-3.69-2.83-4.79-5.04-5.04-12.01-2.96-18.31-2.2-3.31,1.01-7.39.93-11.1-.27-.7-.23-2.26-.76-2.41.83-2.41,16.75-2.96,33.33-4.92,50.34Zm49.44-22.08c-1.37,1.69-3.62,2.06-3.4,4.47.02.2-.27.59-.45.61-4.27.59-6.81,4.12-9.64,6.56-27.67,22.55-38.32,1.48-37.51,37.48-.02,1.57.68,1.62,1.88,1.07,16.79-5.28,33.56-10.82,49.86-17.7,5.6-1.75.5-26.67-.74-32.5Zm82.65,158.78c-1.62,4.58-3.26,9.13-5.6,13.45-2.25,3.57-6.92,8.58-3.63,12.41,5.65,7.16,15.47,4.02,22.62.79,1.77-1.1,3.08-3.69,5.9-3.29.56.08,1.05-.96.86-2.12-1.5-9.33-.86-18.89-3.11-27.99-3.96.68-9.69-1.59-8.75,4.68.1,4.69-.79,9.35-.24,14.05.05.45.07,1.1-.65,1.1-1.54-.2-.99-2.24-1.1-3.33-.4-3.05.36-14.36-2.58-15.13-2.98,1.09-.57,7.04-2,9.55-1.55-1.23.15-3.28-1.72-4.18Zm-147.65-127.8c3.99-1.13,7.57-3.32,11.63-4.07,1.09-.2.77-.98.85-1.61,1.48-17.6,2.75-35.2,4.32-52.79.14-1.63-.79-2.18-2.05-2.33-1.9,0-4.52-1.85-5.97-.11-.62,1.1-1.2,2.41-.1,3.76,1.82,4.6-2.87,13.43-3.09,18.96-.76,13.01-5.95,25.01-5.59,38.18Zm12.32,1.66c.33-2.33-.06-3.28-2.3-2.16-2.81,2.41-11.61,2.64-10.19,7.43,2.16,7.67.35,15.34,4.48,22.24,3.22,11.64,1.1,23.64-.52,35.24-.2.55-1.03,1.17-.4,1.89,1.77,2.04,3.69-1.59,5.65.15,1.41,1.16,2.25-.85,1.97-2.38-.82-12.59-.58-25.35.12-37.94.18-.88-.13-1.64-1.35-1.84-3.05-.49-1.41-2.08-.43-2.99,4.87-4.97.82-13.66,2.97-19.64Zm132.31,98.49c-3.37,4.24-6.77,6.59-9.42,10.9-2.39,3.13-6.68,5.13-5.91,10.14-1.36,2.63-4,5.11-6.71,6.33-4.46,3.43-.28,14.89-.81,20.24.02.58-.06,1.44.83,1.24,11.05-.86,13.13-16.31,16.16-25.03-8.01.29-7.13-8.77.74-4.69,2.59,1.23,5.06-15.93,5.12-19.14Zm-62.84-103.92c4.59-2.51,9.88-2.5,14.81-3.9.87-.25,2.37,1.37,2.84-.38.27-1.03,1.06-2.01.53-3.4-2.63-5.14,2.16-12.73-.85-16.86-1.89-1.19-3.46-3.29-6.35-2.06-1.5.64-2.74.96-2.5,2.85.86.19,1.79-1.84,2.08-.25.28,1.5-.83,3.05-2.25,4.19-1.89,1.52-1.62-1.18-2.78-1.3-2.08,7.07-6.06,9.7-5.18,17.65-.29.97-1.36,2.12-.36,3.46Zm-136.08-41.18c5.42-6.97,7.94-14.38,7.17-23.16.25-7,2.19-13.7.69-20.69-1.82,4.21-2.56,8.89-5.1,12.78-3.07,4.71-2.22,10.09-2.43,15.24-.21,5.05-1.73,10.08-.32,15.83Zm213.16,134.8c-.66,9.55-1.33,19.1-2,28.84,2.39-1.75,8.41,1.53,7.04-3.16-2.03-8.56-.96-17.59-5.04-25.68Zm-7.92-43c-.04,3.16-.08,6.32-.12,9.47.32-1.17,2.86-.71,2.07-2.2-1.26-2.36-.95-4.97-1.94-7.27Zm2.38,66.14c-.34,1.89-3.55,5.08-1.1,6.14.55.19,1.18-.44,1.03-.75-.87-1.79,1.15-3.37.07-5.38Z"/><path class="cls-1" d="m248.34,219.34c.26-2.21,29.25-33.63,24.34-22.72-7.3,6.58-14.41,13.49-19.74,21.86-1.79,2.28-2.98,3.62-3,6.66-3.63-.02-2.59,3.51-3.59,5.25-1.11,1.95,1.04,4.27,1.81,6.39.32.89,1.6,1.38.9,2.73-.2.39.4.86.91.93.65.09,1.8-1.37,1.82.58,0,1.06.23,2.17-.81,3.05-5.32,2.28-8.8-10.57-8.21-14.5.04-1.01-1.38-.49-1.99-.46,1.11,1.84-1.22,1.34-1.57,2.3-5.23,7.6-16.71,5.52-24.47,8.77-6.37,1.29-12.4-2.29-18.51-1.25-.9.39-1.88.44-2.65.2-3.53-1.13-6.1,1.44-9.09,2.26-1.92.53-1.26,2.62-.9,3.61,1.69,4.66,1.05,9.61,2.06,14.34.33,1.55,1.23,3.16.1,5.18-2.22-7.01-2.76-14.07-4.38-21.16-7.6,1-11.95,7.44-18.52,10.74-3.52,1.43-6.5,4.24-8.18,7.72-.44,1.17-1.1,3.32-.74,4.77-3.03,3.45.2,8.37-2.81,11.92-.51.6-.64,1.29-1.59,1.25-.36-.02-1.06.06-.88.52,1.31,3.28-2.47,4.23-3,6.69-.26,1.22-1.19,2.05-1.99.2-.23-.52-.4-.79-1-.86-4.98-.27-3.66-5.43-4.23-9.04-.35-3.02,2.83-3.06,3.64-5.12,1.94-4.93,3.36-9.94,4.52-15.12,1.44-7.56,8.36-14.15,5.96-22.42-.43-1.22.64-1.79.96-2.57,1.2-2.98-.58-5.87.11-8.72.88-3.59.69-7.36.16-10.76-.79-10.86-2.11-21.46-3.37-32.22-.96-1.85.22-5.68-2.1-6.22-1.78-.2-3.82,1.16-4.68,2.8-1.55,2.98-2.7.06-3.82-.17-1.14-.24-1.84-1.55-1-3.07,1.8-4.78,9.07-7.31,8.12-12.56-1.17-17.86-6.07-35.24-7.19-53.09-.04-1.17-.69-1.07-1.63-.79-8.75,2.16-16.38,7.99-24.06,11.69-2.41-2.29-2.94.21-3.86,1.51-3.47,5.44-9.33,10.37-10.6,16.82.37,2.16-2.02,2-2.8,3.56-3.97,5.8-10.4,26.58-15.43,28.18,7.82-17.38,22.78-54.67,38.89-63.68,14.57-10.2,15.04-4.1,27.91-19.85,1.53-1.43,3.99.03,3.94,2.55-.01,5.13,6.21,1.81,9.12,1.82,5.63-.93.02-11.02,2.12-12.78,1.44-.98,2,.97,3.17,1,1.14.03,1.02.95.78,1.53-1.01,2.83-1.35,12.36,3.74,8.35.63-.63.78-1.42.84-2.37.11-1.77.96-2.86,3.1-2.63,2.87.46,1.73,3,2.2,5.04,5.89-2.58,12.14-2.43,18.18-3.39,3.48-.55,3.48-3.63,5.18-5.4,1.93-2.01,3.54-4.42,5.1-6.7,9.65-10.37,15.6-25.5,29.37-31.02,5.93-.84,8.87-7.34,14.57-8.54,13.58-7.81,26.62-4.99,40.4.9,2.6.8-1.12-4.93,2.5-5.14,1.57-.27,2.08.86,2.81,1.95.78,1.17-.78,3.08,1.11,3.66,2.89.88,5.9,1.24,8.85.41,13.29-3.9,30.2,1.29,37.11,13.7,5.3,9.43,12.63,17.08,13.78,28.31,2.04,11.47-.68,23.05-.84,34.42.18,4.02-2.4,7.07-2.19,10.84-.27,2.5.92,4.7-.66,6.97-.88,1.67-.55,3.99-1.45,5.63-2.79,5.06,1.16,8.05,3.28,11.52,3.17,7.66,5.98,15.62,9.38,23.28.85,1.59-1.68,2.59-1.73.7-4.27-8.65-6.57-20.19-13.74-26.62.03,1.45-1.5,2.18-1.57,3.73-.05,1.25,1.24,2.28.68,3.16-.76,1.19-.04,3.53-2.54,3.53-1.92.64,1.92,4.03-1.56,2.89-.17-.06.05,1.04.01,1.52-.11,1.41,1.04,3.84-2.22,3.41-.19-.02-3.58.51-1.86,2.99.17.24-.05.75-.09,1.14-2.24-.99-1.48,2.14-3.24,2.4-1.51.53-1.25,4.61-2.23,6.1-.47.62-4.01.05-.95,2.23-4.52,1.72-6.77,8.02-11.76,9.09-5.98,1.29-3.68-6.87-11.42-7.62-3.79-.23-15.45-4.08-15.13,2.32.46,8.87,2.1,17.68,2.67,26.47-.91.04-1.11-.42-1.17-1.05-.8-7.76-2.48-15.38-3.8-23.05-.59-1.45,1.11-6.7-2.11-3.66-3.19-1.92-4.58,2.82-7.43,2.01-1.94-.55-3.87-.75-5.9-.54-2.31.48-1.55,4.96-4.77,4.12-1.23-.35-2.83.17-2.37-2.18-.86,2.93-8.91,4.63-6.88,8.29.53.81-.48,1.18-.9,1.67-2.79,2.23,1.38,6.28-1.14,6.47-.9.02-1.9.26-1.47,1.28,1.34,3.21-2.5,3.94-2.91,6.33-.07.44-1.47,1.27-2.48.1-2.52-2.91-2.68.02-3.17,1.45-1.2,3.5-2.5,7-2.14,11.27Zm-47.81-135.12c6.24-.78,12.68-1.92,18.3,1.13.9.59-.91,7.4-1.57,8.56-.83,1.46-3.36,2.06-2.42,4.48-5.79,5.09-9.97,13-16.26,17.96-2.17,1.65-3.6,4.4-6.61,5.04-5.59,6.52-10.94,14.86-12.19,23.7-.03.25-.15.66-.31.7-4.13,1.12-3.23,4.85-3.84,7.66-.52,2.39,1,4.04,3.27,3.22,3.96-1.43,8.41-.74,12.1-3.34,5.76-4.52,8.12,6.33,4.64,9.62-.82,1.36-1.09,3.17-3.28,3.13-.7-.01-.07.65-.19.85-.89,1.54-1.46,3.44-3.13,4.26-3.84,1.04-4.12,5.56-6.81,7.71-7.28,6.04-1.11,22.38-1.8,31.2.86,5.88,1.11,11.8,1.48,17.7.12,1.93.56,1.66,1.89,1.19,9.97-3.96,20.17-7.06,30.81-4.31,3.4.4,6.98,1.85,10.23.25,3.17-1.56,6.51-1.57,9.79-2.09,7.34-1.15,9.61-3.76,9.22-11.17-.01-.24.08-.6.26-.72,3.39-2.25,2.79-6.4,4.47-9.5,1.46-2.7,2.19-5.84,2.94-8.86.94-3,7.14-14.35,9.8-14.78,2.28-.18,2.52-2.09,2.48-3.48-.05-1.54.09-2.04,1.61-1.66.28-1.74,4.46,1.14,3.13-2.67-.23-.67,1.01-.33,1.39-.62,1.36-1.02,3.78.42,4.44-1.69.4-1.27,1.05-1.09,1.94-1.24,4.77-.81,4.47-.92,5.72-5.79.41-1.57-1.01-2.54-.15-4.05,1.27-2.24,2.62-4.72.29-7.23-.32-.35.17-.77.14-1.07-.3-12.67-10.66-22.13-13.67-34.13-2.07-11.96-1.94-24,.14-35.91,2.27-4.23-1.72-4.76.1-6.25,1.9-.8,1.47-2.41,1.41-3.81.55-7.06,2.73-14.07,5.55-20.51.39-.67-.22-1.27-.75-1.37-29.18-13.1-59.28,14.96-74.58,37.87Zm135.61,61.34c-1.32-1.15-3.21,0-3.53-1.47-.27-1.22,1.68-1.09,2.24-2.08.32-.56.5-1.3,1.71-.87,2.62.51.9-7.25,2.49-9,1.7-4.8-9.89-13.08-14.39-14.17-9.08-3.19-18.57-6.47-28.05-3.07-1.37.39-3.79.29-4.09,2.26-1.15,13.75.74,27.64.61,41.44-1.24,10.59,7.37,4.99,13.76,5.61,4.87,2.21,10.23.25,14.68,2.91,1.84,1.41,4.87,3.71,5.65-1.02,1.63-1.29.35-4.26,2.9-4.98-.9-1.15,2.36-2.11.02-3.54-1.97-1.2,1.85-.79.9-2.29-.41-.65.46-.41.81-.12,3.43,2.28-.96-4.5,2.58-5.8-.42-2.2-1.21-2.87,1.71-3.81Zm-30.36-97.58c-16.76-2-9.73,6.87-12.22,18.25-.58,9.85-.58,19.76-1.73,29.59-.37,1.02.84,2.55,1.81,1.58,13.66-8.56,28.02-15.91,42.77-22.53,1.75-.87,1.2-1.05.48-2.17-5.01-6.21-8.01-14.64-14.17-19.66-5.26-2.59-10.27-6.38-16.93-5.05Zm-13.63,64c18.75-4.39,34.59.11,48.02,13.13,1.82-15.07,5.49-31.68.02-46.36-2.1-5.28-13.51,5.63-17.5,6.09-10.28,4.25-19.26,11.05-29.23,15.97-2.66,2.65-.62,7.68-1.31,11.17Zm-2.11-8.87c-.69-.54-.87.02-1.2.14-1.81.65-4.02,3.59-5.4.98-1.44-2.71,1.8-3.54,3.89-4.28,4.48-1.07,3.08-5.53,2.71-8.91.45-6.35,0-12.76.49-19.03.52-6.73-.47-13.55,1.1-20.22.19-.82.81-2.85-1.17-2.5-2.84,1.14-9.64-3.29-10.23.79-1.93,11.99-5.97,24.22-4.72,36.41-1,9.96,1.24,20.07,6.56,28.63,2.38,2.71,3.42,6.24,5.68,9.01,1.81,2.22.83,5.55,3,7.98-.18-4.55.4-9-.76-12.94-.88-2.95-.37-5.1.25-7.75.64-2.75-.77-5.6-.2-8.3Zm-129.9,141.54c5.41-5.38,12.58-8.2,18.67-12.68.57-.37,1.23-.8,1.06-1.91-1.14-14.92-3.01-29.52-4.3-44.49-3.17,5.02-11.17-.11-4.85-3.64,2.92-2.13-1.8-4.02,4.41-6.6-.09-.53-.65-.73-1.17-.95-2.35-.52.69-2.67-1.42-2.41-1.99,1.36-6.35-2.77-6.29.77.21,3.99-.59,7.99.35,12,.33,1.38.7,3.36-.35,4.36-2.6,3.15.87,5.58.09,9.17-.42,1.81.43,4.07.22,6.3-.68,7.06.19,14.71-.91,21.63-2.44,5.98-3.52,12.33-5.52,18.46Zm34.08-133.05c1.47-1.1-1.83-2.33.48-2.61,1.82-.22,2.48-.34,2.05-2.23-.21-.91.44-1.33,1.27-1.72,4.03-1.8,1.22-5.76,3.88-6.98-6.74-3.32-15.1,1.79-22.54.38-.96-.12-4.59-.16-4.51,3.76,1.06,12.85-.88,25.87.74,38.77,1.01-2.4,3.82-3.49,4.17-6.49,1.27-4.04,4.8-8.39,6.6-12.42,2.53-2.95,3-11.45,7.87-10.47Zm-23.56-10.95c-1.32,1.04-3.86-.72-4.08,2.03-.65,10.54-1.72,20.93-1.17,31.51.61,6.39-1.2,14.34.24,20.3,1.88.43,3.79,1.3,5.81.91,1.4-.39,1.31-2.1-.33-1.38-2.87-.63-3.62-2.3-2.03-4.82.59-.93.68-2.54,2.59-2.35,2.18-.32-.37-2.43-.54-3.19,2.41-3.46.63-7.34.76-10.91-.08-10.77-.32-21.24-1.26-32.1Zm-11.01,45.94c.9,2.6-.71,8.57,2.34,9.36,1.64-.04,1.54-1.88,1.48-3.09-1.2-13.67-.36-27.29-.64-40.92,1.07-14.72,1.88-8.89-6.86-9.01-6.26-.35,5.32,36.14,3.68,43.67Zm130.43,11.58c-.77,1.92-1.58,3.49-2.03,5.17-.4,1.47,1.29.7,1.86,1.32.47.52,1.41-.17,1.22-.66-.68-1.77.53-3.79-1.05-5.83Z"/><path class="cls-1" d="m2.21,218.91c-.68-.81-1.49,1.02-2.06-.1-.52-1.03.39-1.31,1.07-1.73,1.47-.84-1.03-3.17,1.55-3.01-5.24-6.05,4.45-4.06,3.4-7.92-.45-1.91,1.26-3.44.39-5.66-.54-1.37,2.54-2.65,3.73-2.53,2.25.83,7.75-9.2,10.05-11.3,5.69-5.44,9.1-10.36,17.34-12.28,24.81-8.59,30.89,7.57,29.49-10.42-.37-3.1,2.93-3.77,4.81-1.93.84,1.04.53,1.92-.2,3.17-1.06,2.31-2.78,6.87-.92,8.94,2.39.85,4.99.61,7.44,1.67.81.35,1.9-2.81,1.8-4.23-.1-1.28.33-1.47,1.05-1.88,5.65-1.18-5.97,8.33,5.5,8.81,19.18,6.39,20.55-1.55,30.7-15.04,2.05-2.18,4.26-.88,6.35-.15,4.58,2.01-4.21,10.88-5.53,13.69-4.62,4.66-4.43,12.06-6.99,18.28-7.65,27.45-11.44,55.78-10.38,84.21-.62,2.33,3,1.62,1.31,3.66-.32,4.97,2.55,11.01,3.69,15.98,3.58,12.99,14.39,22.56,18.86,35.06,2,6.51,3.61,13.03,2.85,19.9,1.7,8.23,2.17,31.19-3.82,36.7,2.36-1.56,5.12,1.31,3.35,2.65-3.47,1.78-4.42,5.31-5.54,8.49-2.9,8.22-6.25,17.1-10.83,23.99-.95.75-.9,1.41-.76,2.27.06.36.41.99.01.99-3.03,0-2.73,3.19-4.21,4.65-1.52,1.5-1.74,4.55-2.01,6.98-.16,1.44-1.89,3.35.59,4.65.27.14.13,1.94-.67,2.21-2.1.7-3.17,1.72-2.71,4.11.16.84-.94,2-1.38,2.28-3.68,2.36-4.04,7.66-8.4,9.32-1.21.46.41,1.46-.39,2.01-3.05,3.08-7.94,4.21-11.9,6.18-17.75,14.11-40.73,14.42-50.79-8.69-9.09-17.81-15.35-38.56-13.71-58.75,1.39-10.05,6.4-19.01,8.14-29.04.44-1.86,3.1-4.38,3.97-6.42,1.35-11.59,10.62-24.96,18.28-33.85,17.17-16.35,17.46-9.4,16.45-34.48,1.09-35.05.48-70.01.23-105.05.01-1.74-1.32-3.34-.19-5.24.59-.99-.76-1.05-1.29-.93-6.35.11-12.44-1.94-18.76-.38-8.94.94-13.3,3.32-19.58,9.52-1.28.82-3.04,1.59-.96,3.43.18.16-.02,1.07-.04,1.07-3.78.04-.44,4.12-2.83,5.16-.31.14-1.12,1.67-1.76,2.71,1.08.35,2.57.69,2.54,1.88-.04,1.48-1.65.08-2.49.81.64,1.86,2.44.04,3.47,1.2-1.97,1.13-3.05,2.71-2.63,5.03.13.7-.19,1.1-1.05.88-3.78.21-3.24,5.82-3.06,8.64.97,4.84-2.31,2.92-2.96,5.52-.59,21.56-3.37,43.41,2.73,64.5,1.76,3.02-2.31,3.67-2.63.43-5.37-20.84-4.19-42.41-2.99-63.59-.29-4.89-1.88.76-3.13-1.69-2.13-4-.98-8.6-3.01-12.44-.61-.67.86-1.96,1.41-2.93Zm58.7,109.69c-5.12,4.29-9.66,7.71-12.38,13.72-2.1,4.74-6.5,8.32-6.89,14-3.24,9.31-7.6,18.21-10.66,27.68-2.65,6.47-3.57,12.78-2.92,19.6.5,2.74-1.33,5.49-.2,8.14,3.11,10.22,5.63,20.67,9.25,30.83,4.19,13.18,14.9,26.8,30.29,23.65,4.86-.04,13.37-6.99,13.03-11.57-.52-1.62-.12-2.1,1.64-2.4,1.72-.29,3.19-1.48,3.29-3.63.15-3.12,3.63-5.14,2.7-8.88-.22-.87.97-5.18,4.62-3.02.14.08.7-.19.74-.37.44-2.11,3.02-3.15,2.95-5.33-.08-2.49,3.59-2.78,2.86-5.45,2.84.3,2.89-2.56,4.36-3.82,3.55-3.05,3.89-7.85,6.11-11.65.45-2.25,3.19-3.74,3.26-6.07-.86-5.14,1.47-9.86,1.88-14.82,3.97-12.31,2.98-25.78.24-38.37-2.9-8.74-8.27-16.15-12.97-23.79-7.25-9.74-9.82-20.58-11.4-32.23-2.17-4.82-1.86-9.73-1.9-14.63.1-29.51,4.84-58.47,13.09-86.76-2.85,1.37-5.19,3.73-7.24,3.1-3.33-1.02-6.44.84-10-.76-3.97-1.79-8.6-2.31-12.66-4.42-1.21-.63-3.14-1.25-3.47,1.79-2.39,30.84-4.37,61.87-4.25,92.63-1.06,10.63-.37,21.27-.84,31.9-.03.7-.08,1.41,1,1.46,2.32.11,4.44-1.88,4.46-4.32.06-9.02-.17-18.04.31-27.06.58-10.8,0-21.63.88-32.46,1.18-3.31-1.72-14.78,1.94-15.22,1.94-.21,3.69.62,3.5,2.57-2.66,17.51-4.75,34.73-4.3,52.55-.42,46.86,1.67,94.58,8.27,140.59-.35.81.3,2.15-1.41,2.01-1.32-.11-1.76-.91-1.62-2.05-.64-7.49-1.97-15.25-2.17-22.79-2.3-29.96-4.46-60.44-6.09-90.24-1.99,2.97-6.17,4.59-4.92,9.15.17,15.36-.79,30.85-.58,46.29.54,6.51-3.71,67.71,4.94,62.45,1.17-3.11,3.1,2,2.48,2.81-14.98,8.64-8.73-27.04-10.79-34.37-.02-5.43-.13-10.67-1.5-16.08-.12-4.03,2.72-.05,2.24-2.87-1.08-20.77.43-40.6.83-61.5Z"/></g></svg>